<?xml version="1.0" encoding="utf-8"?>
<!-- Generator: Adobe Illustrator 21.1.0, SVG Export Plug-In . SVG Version: 6.00 Build 0)  -->
<svg version="1.1" id="Layer_1" xmlns="http://www.w3.org/2000/svg" xmlns:xlink="http://www.w3.org/1999/xlink" x="0px" y="0px"
	 viewBox="0 0 128 128" style="enable-background:new 0 0 128 128;" xml:space="preserve">
<style type="text/css">
	.st0{fill:#CD2323;}
</style>
<path class="st0" d="M62.4,8.2c0.9,0.7,2.3,0.7,3.1,0l8.2-6.8c0.9-0.7,2-0.5,2.6,0.5l5.3,9.2c0.6,1,1.9,1.4,2.9,1.1l10-3.6
	c1.1-0.4,2.1,0.2,2.3,1.3l1.9,10.5c0.2,1.1,1.3,2,2.4,2l10.6,0c1.1,0,1.9,0.9,1.7,2l-1.8,10.5c-0.2,1.1,0.5,2.3,1.6,2.7l10,3.7
	c1,0.4,1.4,1.5,0.9,2.5l-5.3,9.2c-0.6,1-0.3,2.3,0.5,3.1l8.1,6.8c0.9,0.7,0.9,1.9,0,2.6l-8.1,6.9c-0.9,0.7-1.1,2.1-0.5,3.1l5.3,9.2
	c0.6,1,0.1,2.1-0.9,2.5l-10,3.7c-1,0.4-1.7,1.6-1.6,2.7l1.8,10.5c0.2,1.1-0.6,2-1.7,2l-10.6,0c-1.1,0-2.2,0.9-2.4,2l-1.9,10.5
	c-0.2,1.1-1.2,1.7-2.3,1.3l-10-3.6c-1-0.4-2.4,0.1-2.9,1.1l-5.3,9.2c-0.6,1-1.7,1.2-2.6,0.5l-8.2-6.8c-0.9-0.7-2.3-0.7-3.1,0
	l-8.2,6.8c-0.9,0.7-2,0.5-2.6-0.5l-5.3-9.2c-0.6-1-1.9-1.4-2.9-1.1l-10,3.6c-1,0.4-2.1-0.2-2.3-1.3l-1.9-10.4c-0.2-1.1-1.3-2-2.4-2
	l-10.6,0c-1.1,0-1.9-0.9-1.7-2l1.8-10.5c0.2-1.1-0.5-2.3-1.6-2.7l-10-3.7c-1-0.4-1.5-1.5-0.9-2.5l5.3-9.2c0.6-1,0.3-2.4-0.5-3.1
	l-8.1-6.8c-0.9-0.7-0.9-1.9,0-2.6l8.1-6.8c0.9-0.7,1.1-2.1,0.5-3.1L4,43.6c-0.6-1-0.2-2.1,0.9-2.5l10-3.7c1-0.4,1.7-1.6,1.6-2.7
	l-1.8-10.5c-0.2-1.1,0.6-2,1.7-2l10.6,0c1.1,0,2.2-0.9,2.4-2l1.9-10.5c0.2-1.1,1.2-1.7,2.3-1.3l10,3.6c1,0.4,2.4-0.1,2.9-1.1
	l5.3-9.2c0.6-1,1.7-1.2,2.6-0.5L62.4,8.2z"/>
</svg>
